# File generated by ImageToStl.com - Free Image and 3D model conversion tools

mtllib stage.mtl

o obj1
v -4.02858138 -4.04172945 0
v -2.84372449 -4.04172945 -2.86049795
v -1.84092748 -4.04172945 -1.85770094
v -2.61041355 -4.04172945 0
v 2.87727141 -4.04172945 -2.860497
v 4.06212831 -4.04172945 0
v 2.64396048 -4.04172945 0
v 1.87447548 -4.04172945 -1.85770094
v 2.87727046 -4.04172945 2.86049795
v 0.01677346 -4.04172945 4.04535484
v 0.01677346 -4.04172945 2.62718701
v 1.87447441 -4.04172945 1.85770202
v -2.84372449 -4.04172945 2.86049795
v -1.84092748 -4.04172945 1.85770094
v 0.01677346 -4.04172945 -4.04535484
v 0.01677346 -4.04172945 -2.62718701
v -4.02858138 -4.31640744 0
v -2.84372449 -4.31640744 -2.86049795
v 2.87727141 -4.31640744 -2.860497
v 4.06212831 -4.31640744 0
v 2.87727046 -4.31640744 2.86049795
v 0.01677346 -4.31640744 4.04535484
v -2.84372449 -4.31640744 2.86049795
v 0.01677346 -4.31640744 -4.04535484
v 2.19896436 -4.31640744 0
v 1.55981445 -4.31640744 1.54304194
v 0.01677346 -4.31640744 2.18218994
v -1.52626753 -4.31640744 1.54304194
v -2.16541648 -4.31640744 0
v -1.52626753 -4.31640744 -1.54304194
v 1.55981541 -4.31640744 -1.54304099
v 0.01677346 -4.31640744 -2.18218994
v -1.1703285 -4.31640744 -1.18710196
v 0.01677346 -4.31640744 -1.67881501
v 1.20387542 -4.31640744 -1.18710101
v 1.69558942 -4.31640744 0
v 1.20387542 -4.31640744 1.18710196
v 0.01677346 -4.31640744 1.67881501
v -1.1703285 -4.31640744 1.18710196
v -1.66204154 -4.31640744 0
v -4.02858138 -4.32324946 0
v -2.84372449 -4.32324946 -2.86049795
v -1.86512351 -4.32324946 -1.88189697
v -2.64463162 -4.32324946 0
v 2.87727141 -4.32324946 -2.860497
v 4.06212831 -4.32324946 0
v 2.67817855 -4.32324946 0
v 1.89867151 -4.32324946 -1.88189697
v 2.87727046 -4.32324946 2.86049795
v 0.01677346 -4.32324946 4.04535484
v 0.01677346 -4.32324946 2.66140509
v 1.89867043 -4.32324946 1.88189805
v -2.84372449 -4.32324946 2.86049795
v -1.86512351 -4.32324946 1.88189697
v 0.01677346 -4.32324946 -4.04535484
v 0.01677346 -4.32324946 -2.66140509
v 0.01677346 -4.32324946 1.59516895
v 1.14472842 -4.32324946 1.12795496
v -1.57839549 -4.32324946 0
v -1.1111815 -4.32324946 1.12795496
v 0.01677346 -4.32324946 -1.59516895
v -1.1111815 -4.32324946 -1.12795496
v 1.14472842 -4.32324946 -1.12795496
v 1.61194241 -4.32324946 0
vn 0 -1 0
vn 0.9239 0 0.3827
vn -0.9239 0 0.3827
vn -0.3827 0 -0.9239
vn 0.9239 0 -0.3827
vn 0.3827 0 0.9239
vn -0.3827 0 0.9239
vn -0.9239 0 -0.3827
vn 0.3827 0 -0.9239
vn 0 1 0
vt 0 1
usemtl mat0
f 1/1/1 2/1/1 3/1/1
f 1/1/1 3/1/1 4/1/1
f 5/1/1 6/1/1 7/1/1
f 5/1/1 7/1/1 8/1/1
f 9/1/1 10/1/1 11/1/1
f 9/1/1 11/1/1 12/1/1
f 13/1/1 1/1/1 4/1/1
f 13/1/1 4/1/1 14/1/1
f 2/1/1 15/1/1 16/1/1
f 2/1/1 16/1/1 3/1/1
f 15/1/1 5/1/1 8/1/1
f 15/1/1 8/1/1 16/1/1
f 6/1/1 9/1/1 12/1/1
f 6/1/1 12/1/1 7/1/1
f 10/1/1 13/1/1 14/1/1
f 10/1/1 14/1/1 11/1/1
f 3/1/1 16/1/1 8/1/1
f 3/1/1 8/1/1 7/1/1
f 3/1/1 7/1/1 12/1/1
f 3/1/1 12/1/1 11/1/1
f 3/1/1 11/1/1 14/1/1
f 3/1/1 14/1/1 4/1/1
f 2/1/2 1/1/2 17/1/2
f 2/1/2 17/1/2 18/1/2
f 6/1/3 5/1/3 19/1/3
f 6/1/3 19/1/3 20/1/3
f 10/1/4 9/1/4 21/1/4
f 10/1/4 21/1/4 22/1/4
f 1/1/5 13/1/5 23/1/5
f 1/1/5 23/1/5 17/1/5
f 15/1/6 2/1/6 18/1/6
f 15/1/6 18/1/6 24/1/6
f 5/1/7 15/1/7 24/1/7
f 5/1/7 24/1/7 19/1/7
f 9/1/8 6/1/8 20/1/8
f 9/1/8 20/1/8 21/1/8
f 13/1/9 10/1/9 22/1/9
f 13/1/9 22/1/9 23/1/9
f 21/1/10 20/1/10 25/1/10
f 21/1/10 25/1/10 26/1/10
f 23/1/10 22/1/10 27/1/10
f 23/1/10 27/1/10 28/1/10
f 18/1/10 17/1/10 29/1/10
f 18/1/10 29/1/10 30/1/10
f 20/1/10 19/1/10 31/1/10
f 20/1/10 31/1/10 25/1/10
f 22/1/10 21/1/10 26/1/10
f 22/1/10 26/1/10 27/1/10
f 17/1/10 23/1/10 28/1/10
f 17/1/10 28/1/10 29/1/10
f 24/1/10 18/1/10 30/1/10
f 24/1/10 30/1/10 32/1/10
f 19/1/10 24/1/10 32/1/10
f 19/1/10 32/1/10 31/1/10
f 32/1/10 30/1/10 33/1/10
f 32/1/10 33/1/10 34/1/10
f 31/1/10 32/1/10 34/1/10
f 31/1/10 34/1/10 35/1/10
f 26/1/10 25/1/10 36/1/10
f 26/1/10 36/1/10 37/1/10
f 28/1/10 27/1/10 38/1/10
f 28/1/10 38/1/10 39/1/10
f 30/1/10 29/1/10 40/1/10
f 30/1/10 40/1/10 33/1/10
f 25/1/10 31/1/10 35/1/10
f 25/1/10 35/1/10 36/1/10
f 27/1/10 26/1/10 37/1/10
f 27/1/10 37/1/10 38/1/10
f 29/1/10 28/1/10 39/1/10
f 29/1/10 39/1/10 40/1/10
f 33/1/10 40/1/10 39/1/10
f 33/1/10 39/1/10 38/1/10
f 33/1/10 38/1/10 37/1/10
f 33/1/10 37/1/10 36/1/10
f 33/1/10 36/1/10 35/1/10
f 33/1/10 35/1/10 34/1/10
f 41/1/1 42/1/1 43/1/1
f 41/1/1 43/1/1 44/1/1
f 45/1/1 46/1/1 47/1/1
f 45/1/1 47/1/1 48/1/1
f 49/1/1 50/1/1 51/1/1
f 49/1/1 51/1/1 52/1/1
f 53/1/1 41/1/1 44/1/1
f 53/1/1 44/1/1 54/1/1
f 42/1/1 55/1/1 56/1/1
f 42/1/1 56/1/1 43/1/1
f 55/1/1 45/1/1 48/1/1
f 55/1/1 48/1/1 56/1/1
f 46/1/1 49/1/1 52/1/1
f 46/1/1 52/1/1 47/1/1
f 50/1/1 53/1/1 54/1/1
f 50/1/1 54/1/1 51/1/1
f 52/1/1 51/1/1 57/1/1
f 52/1/1 57/1/1 58/1/1
f 54/1/1 44/1/1 59/1/1
f 54/1/1 59/1/1 60/1/1
f 43/1/1 56/1/1 61/1/1
f 43/1/1 61/1/1 62/1/1
f 56/1/1 48/1/1 63/1/1
f 56/1/1 63/1/1 61/1/1
f 47/1/1 52/1/1 58/1/1
f 47/1/1 58/1/1 64/1/1
f 51/1/1 54/1/1 60/1/1
f 51/1/1 60/1/1 57/1/1
f 44/1/1 43/1/1 62/1/1
f 44/1/1 62/1/1 59/1/1
f 48/1/1 47/1/1 64/1/1
f 48/1/1 64/1/1 63/1/1
f 62/1/1 61/1/1 63/1/1
f 62/1/1 63/1/1 64/1/1
f 62/1/1 64/1/1 58/1/1
f 62/1/1 58/1/1 57/1/1
f 62/1/1 57/1/1 60/1/1
f 62/1/1 60/1/1 59/1/1
# Vertices: 64, normals: 10, texture coordinates: 1, faces: 114

o obj2
v -2.84372449 -4.32324946 -2.86049795
v -4.02858138 -4.32324946 0
v -4.02858138 -4.59792745 0
v -2.84372449 -4.59792745 -2.86049795
v 4.06212831 -4.32324946 0
v 2.87727141 -4.32324946 -2.860497
v 2.87727141 -4.59792745 -2.860497
v 4.06212831 -4.59792745 0
v 0.01677346 -4.32324946 4.04535484
v 2.87727046 -4.32324946 2.86049795
v 2.87727046 -4.59792745 2.86049795
v 0.01677346 -4.59792745 4.04535484
v -2.84372449 -4.32324946 2.86049795
v -2.84372449 -4.59792745 2.86049795
v 0.01677346 -4.32324946 -4.04535484
v 0.01677346 -4.59792745 -4.04535484
v 1.94727647 -4.59792745 0
v 1.38184547 -4.59792745 1.36507201
v 0.01677346 -4.59792745 1.93050301
v -1.34829855 -4.59792745 1.36507201
v -1.91372955 -4.59792745 0
v -1.34829855 -4.59792745 -1.36507201
v 1.38184547 -4.59792745 -1.36507106
v 0.01677346 -4.59792745 -1.93050301
vn 0.9239 0 0.3827
vn -0.9239 0 0.3827
vn -0.3827 0 -0.9239
vn 0.9239 0 -0.3827
vn 0.3827 0 0.9239
vn -0.3827 0 0.9239
vn -0.9239 0 -0.3827
vn 0.3827 0 -0.9239
vn 0 1 0
vt 0 1
usemtl mat0
f 65/2/11 66/2/11 67/2/11
f 65/2/11 67/2/11 68/2/11
f 69/2/12 70/2/12 71/2/12
f 69/2/12 71/2/12 72/2/12
f 73/2/13 74/2/13 75/2/13
f 73/2/13 75/2/13 76/2/13
f 66/2/14 77/2/14 78/2/14
f 66/2/14 78/2/14 67/2/14
f 79/2/15 65/2/15 68/2/15
f 79/2/15 68/2/15 80/2/15
f 70/2/16 79/2/16 80/2/16
f 70/2/16 80/2/16 71/2/16
f 74/2/17 69/2/17 72/2/17
f 74/2/17 72/2/17 75/2/17
f 77/2/18 73/2/18 76/2/18
f 77/2/18 76/2/18 78/2/18
f 75/2/19 72/2/19 81/2/19
f 75/2/19 81/2/19 82/2/19
f 78/2/19 76/2/19 83/2/19
f 78/2/19 83/2/19 84/2/19
f 68/2/19 67/2/19 85/2/19
f 68/2/19 85/2/19 86/2/19
f 72/2/19 71/2/19 87/2/19
f 72/2/19 87/2/19 81/2/19
f 76/2/19 75/2/19 82/2/19
f 76/2/19 82/2/19 83/2/19
f 67/2/19 78/2/19 84/2/19
f 67/2/19 84/2/19 85/2/19
f 80/2/19 68/2/19 86/2/19
f 80/2/19 86/2/19 88/2/19
f 71/2/19 80/2/19 88/2/19
f 71/2/19 88/2/19 87/2/19
f 86/2/19 85/2/19 84/2/19
f 86/2/19 84/2/19 83/2/19
f 86/2/19 83/2/19 82/2/19
f 86/2/19 82/2/19 81/2/19
f 86/2/19 81/2/19 87/2/19
f 86/2/19 87/2/19 88/2/19
# Vertices: 24, normals: 9, texture coordinates: 1, faces: 38

